<svg width="28" height="32" viewBox="0 0 28 32" fill="none" xmlns="http://www.w3.org/2000/svg">
<g filter="url(#filter0_dd_1702_571)">
<path fill-rule="evenodd" clip-rule="evenodd" d="M3 2H17.2703C21.5393 2 25 5.38163 25 9.55307V28H10.7297C6.46072 28 3 24.6184 3 20.4469V2ZM20.2432 19.1397C20.2432 17.5352 18.9122 16.2346 17.2703 16.2346H10.7297C9.0878 16.2346 7.75676 17.5352 7.75676 19.1397V20.4469C7.75676 22.0514 9.0878 23.352 10.7297 23.352H17.2703C18.9122 23.352 20.2432 22.0514 20.2432 20.4469V19.1397ZM17.2703 6.64804C18.9122 6.64804 20.2432 7.94867 20.2432 9.55307V10.8603C20.2432 12.4647 18.9122 13.7654 17.2703 13.7654H10.7297C9.0878 13.7654 7.75676 12.4647 7.75676 10.8603V9.55307C7.75676 7.94867 9.0878 6.64804 10.7297 6.64804H17.2703Z" fill="#BA24D5"/>
</g>
<defs>
<filter id="filter0_dd_1702_571" x="0" y="0" width="28" height="32" filterUnits="userSpaceOnUse" color-interpolation-filters="sRGB">
<feFlood flood-opacity="0" result="BackgroundImageFix"/>
<feColorMatrix in="SourceAlpha" type="matrix" values="0 0 0 0 0 0 0 0 0 0 0 0 0 0 0 0 0 0 127 0" result="hardAlpha"/>
<feOffset dy="1"/>
<feGaussianBlur stdDeviation="1"/>
<feColorMatrix type="matrix" values="0 0 0 0 0.0627451 0 0 0 0 0.0941176 0 0 0 0 0.156863 0 0 0 0.06 0"/>
<feBlend mode="normal" in2="BackgroundImageFix" result="effect1_dropShadow_1702_571"/>
<feColorMatrix in="SourceAlpha" type="matrix" values="0 0 0 0 0 0 0 0 0 0 0 0 0 0 0 0 0 0 127 0" result="hardAlpha"/>
<feOffset dy="1"/>
<feGaussianBlur stdDeviation="1.5"/>
<feColorMatrix type="matrix" values="0 0 0 0 0.0627451 0 0 0 0 0.0941176 0 0 0 0 0.156863 0 0 0 0.1 0"/>
<feBlend mode="normal" in2="effect1_dropShadow_1702_571" result="effect2_dropShadow_1702_571"/>
<feBlend mode="normal" in="SourceGraphic" in2="effect2_dropShadow_1702_571" result="shape"/>
</filter>
</defs>
</svg>
